# WaveFront *.obj file (generated by Autodesk ATF)

mtllib cylinder.mtl

g Solid1

v -34.999697 0.000000 0.145333
v -35.000000 150.000000 0.000000
v -34.664135 0.000000 -4.837123
v -34.643750 150.000000 -4.981019
v -34.643750 150.000000 4.981019
v -34.622769 0.000000 5.124829
v -33.622909 0.000000 -9.721109
v -33.582253 150.000000 -9.860640
v -33.582253 150.000000 9.860640
v -33.541019 0.000000 10.000000
v -31.897218 0.000000 -14.407201
v -31.837120 150.000000 -14.539526
v -31.837120 150.000000 14.539526
v -31.776471 0.000000 14.671599
v -29.522192 0.000000 -18.800004
v -29.443874 150.000000 -18.922429
v -29.443874 150.000000 18.922429
v -29.365046 0.000000 19.044527
v -26.546180 0.000000 -22.810092
v -26.451235 150.000000 -22.920125
v -26.451235 150.000000 22.920125
v -26.355834 0.000000 23.029764
v -23.029764 0.000000 -26.355834
v -22.920125 150.000000 -26.451235
v -22.920125 150.000000 26.451235
v -22.810092 0.000000 26.546180
v -19.044527 0.000000 -29.365046
v -18.922429 150.000000 -29.443874
v -18.922429 150.000000 29.443874
v -18.800004 0.000000 29.522192
v -14.671599 0.000000 -31.776471
v -14.539526 150.000000 -31.837120
v -14.539526 150.000000 31.837120
v -14.407201 0.000000 31.897218
v -10.000000 0.000000 -33.541019
v -9.860640 150.000000 -33.582253
v -9.860640 150.000000 33.582253
v -9.721109 0.000000 33.622909
v -5.124829 0.000000 -34.622769
v -4.981019 150.000000 -34.643750
v -4.981019 150.000000 34.643750
v -4.837123 0.000000 34.664135
v -0.145333 0.000000 -34.999697
v 0.000000 150.000000 -35.000000
v 0.000000 150.000000 35.000000
v 0.145333 0.000000 34.999697
v 4.837123 0.000000 -34.664135
v 4.981019 150.000000 -34.643750
v 4.981019 150.000000 34.643750
v 5.124829 0.000000 34.622769
v 9.721109 0.000000 -33.622909
v 9.860640 150.000000 -33.582253
v 9.860640 150.000000 33.582253
v 10.000000 0.000000 33.541019
v 14.407201 0.000000 -31.897218
v 14.539526 150.000000 -31.837120
v 14.539526 150.000000 31.837120
v 14.671599 0.000000 31.776471
v 18.800004 0.000000 -29.522192
v 18.922429 150.000000 -29.443874
v 18.922429 150.000000 29.443874
v 19.044527 0.000000 29.365046
v 22.810092 0.000000 -26.546180
v 22.920125 150.000000 -26.451235
v 22.920125 150.000000 26.451235
v 23.029764 0.000000 26.355834
v 25.000000 20.000000 -10.000000
v 25.000000 20.000000 10.000000
v 25.000000 130.000000 -10.000000
v 25.000000 130.000000 10.000000
v 26.355834 0.000000 -23.029764
v 26.451235 150.000000 -22.920125
v 26.451235 150.000000 22.920125
v 26.546180 0.000000 22.810092
v 29.365046 0.000000 -19.044527
v 29.443874 150.000000 -18.922429
v 29.443874 150.000000 18.922429
v 29.522192 0.000000 18.800004
v 31.776471 0.000000 -14.671599
v 31.837120 150.000000 -14.539526
v 31.837120 150.000000 14.539526
v 31.897218 0.000000 14.407201
v 33.541019 0.000000 -10.000000
v 33.541019 20.000000 -10.000000
v 33.541019 20.000000 10.000000
v 33.541019 130.000000 -10.000000
v 33.541019 130.000000 10.000000
v 33.582253 150.000000 -9.860640
v 33.582253 150.000000 9.860640
v 33.622909 0.000000 9.721109
v 34.472408 20.000000 -6.054181
v 34.472408 20.000000 6.054181
v 34.472408 130.000000 -6.054181
v 34.472408 130.000000 6.054181
v 34.622769 0.000000 -5.124829
v 34.643750 150.000000 -4.981019
v 34.643750 150.000000 4.981019
v 34.664135 0.000000 4.837123
v 34.941247 20.000000 -2.027127
v 34.941247 20.000000 2.027127
v 34.941247 130.000000 -2.027127
v 34.941247 130.000000 2.027127
v 34.999697 0.000000 -0.145333
v 35.000000 150.000000 0.000000
vt 1.000000 -0.500000 0.000000
vt 1.000000 0.354102 0.000000
vt 0.605418 0.447241 0.000000
vt 0.202713 0.494125 0.000000
vt -0.202713 0.494125 0.000000
vt -0.605418 0.447241 0.000000
vt -1.000000 0.354102 0.000000
vt -1.000000 -0.500000 0.000000
vt -4.500000 2.000000 0.000000
vt -3.645898 2.000000 0.000000
vt -3.645898 13.000000 0.000000
vt -4.500000 13.000000 0.000000
vt -0.854102 2.000000 0.000000
vt -0.000000 2.000000 0.000000
vt -0.000000 13.000000 0.000000
vt -0.854102 13.000000 0.000000
vt -2.000000 2.000000 0.000000
vt -0.000000 2.000000 0.000000
vt -0.000000 13.000000 0.000000
vt -2.000000 13.000000 0.000000
vt 1.000000 -1.395898 0.000000
vt 0.605418 -1.302759 0.000000
vt 0.202713 -1.255875 0.000000
vt -0.202713 -1.255875 0.000000
vt -0.605418 -1.302759 0.000000
vt -1.000000 -1.395898 0.000000
vt -1.000000 -2.250000 0.000000
vt 1.000000 -2.250000 0.000000
vt 1.000000 3.354102 0.000000
vt 0.512483 3.462277 0.000000
vt 0.014533 3.499970 0.000000
vt -0.483712 3.466413 0.000000
vt -0.972111 3.362291 0.000000
vt -1.440720 3.189722 0.000000
vt -1.880000 2.952219 0.000000
vt -2.281009 2.654618 0.000000
vt -2.635583 2.302976 0.000000
vt -2.936505 1.904453 0.000000
vt -3.177647 1.467160 0.000000
vt -3.354102 1.000000 0.000000
vt -3.462277 0.512483 0.000000
vt -3.499970 0.014533 0.000000
vt -3.466413 -0.483712 0.000000
vt -3.362291 -0.972111 0.000000
vt -3.189722 -1.440720 0.000000
vt -2.952219 -1.880000 0.000000
vt -2.654618 -2.281009 0.000000
vt -2.302976 -2.635583 0.000000
vt -1.904453 -2.936505 0.000000
vt -1.467160 -3.177647 0.000000
vt -1.000000 -3.354102 0.000000
vt -0.512483 -3.462277 0.000000
vt -0.014533 -3.499970 0.000000
vt 0.483712 -3.466413 0.000000
vt 0.972111 -3.362291 0.000000
vt 1.440720 -3.189722 0.000000
vt 1.880000 -2.952219 0.000000
vt 2.281009 -2.654618 0.000000
vt 2.635583 -2.302976 0.000000
vt 2.936505 -1.904453 0.000000
vt 3.177647 -1.467160 0.000000
vt 3.354102 -1.000000 0.000000
vt 3.462277 -0.512483 0.000000
vt 3.499970 -0.014533 0.000000
vt 3.466413 0.483712 0.000000
vt 3.362291 0.972111 0.000000
vt 3.189722 1.440720 0.000000
vt 2.952219 1.880000 0.000000
vt 2.654618 2.281009 0.000000
vt 2.302976 2.635583 0.000000
vt 1.904453 2.936505 0.000000
vt 1.467160 3.177647 0.000000
vt -0.000000 -9.981443 0.000000
vt -0.000000 -9.481645 0.000000
vt -0.000000 -8.981845 0.000000
vt -0.000000 -8.482046 0.000000
vt -0.000000 -7.982248 0.000000
vt -0.000000 -7.482450 0.000000
vt -0.000000 -6.982650 0.000000
vt -0.000000 -6.482852 0.000000
vt -0.000000 -5.983052 0.000000
vt -0.000000 -5.483254 0.000000
vt -0.000000 -4.983455 0.000000
vt -0.000000 -4.483656 0.000000
vt -0.000000 -3.983857 0.000000
vt -0.000000 -3.484059 0.000000
vt -0.000000 -2.984260 0.000000
vt -0.000000 -2.484461 0.000000
vt -0.000000 -1.984662 0.000000
vt -0.000000 -1.484863 0.000000
vt -0.000000 -0.985064 0.000000
vt -0.000000 -0.485266 0.000000
vt -0.000000 0.014533 0.000000
vt -0.000000 0.514332 0.000000
vt -0.000000 1.014131 0.000000
vt -0.000000 1.513930 0.000000
vt -0.000000 2.013729 0.000000
vt -0.000000 2.513527 0.000000
vt -0.000000 3.013326 0.000000
vt -0.000000 3.513125 0.000000
vt -0.000000 4.012924 0.000000
vt -0.000000 4.512722 0.000000
vt -0.000000 5.012522 0.000000
vt -0.000000 5.512321 0.000000
vt -0.000000 6.012119 0.000000
vt -0.000000 6.511918 0.000000
vt -0.000000 7.011717 0.000000
vt -0.000000 7.511516 0.000000
vt -0.000000 8.011314 0.000000
vt -0.000000 8.511113 0.000000
vt -0.000000 9.010912 0.000000
vt -0.000000 9.510711 0.000000
vt -0.000000 10.010510 0.000000
vt -0.000000 10.510309 0.000000
vt -0.000000 -10.981041 0.000000
vt -0.000000 -10.481242 0.000000
vt -2.000000 -9.981443 0.000000
vt -2.000000 -10.387096 0.000000
vt -2.000000 11.198400 0.000000
vt -2.000000 10.792747 0.000000
vt -2.000000 10.387096 0.000000
vt -2.000000 9.981443 0.000000
vt -13.000000 9.981443 0.000000
vt -13.000000 10.387096 0.000000
vt -13.000000 -11.198400 0.000000
vt -13.000000 -10.792747 0.000000
vt -13.000000 -10.387096 0.000000
vt -13.000000 -9.981443 0.000000
vt -15.000000 0.000000 0.000000
vt -15.000000 -0.499799 0.000000
vt -15.000000 -0.999598 0.000000
vt -15.000000 -1.499396 0.000000
vt -15.000000 -1.999195 0.000000
vt -15.000000 -2.498994 0.000000
vt -15.000000 -2.998793 0.000000
vt -15.000000 -3.498592 0.000000
vt -15.000000 -3.998390 0.000000
vt -15.000000 -4.498189 0.000000
vt -15.000000 -4.997988 0.000000
vt -15.000000 -5.497787 0.000000
vt -15.000000 -5.997586 0.000000
vt -15.000000 -6.497385 0.000000
vt -15.000000 -6.997184 0.000000
vt -15.000000 -7.496983 0.000000
vt -15.000000 -7.996781 0.000000
vt -15.000000 -8.496580 0.000000
vt -15.000000 -8.996379 0.000000
vt -15.000000 -9.496178 0.000000
vt -15.000000 -9.995976 0.000000
vt -15.000000 -10.495775 0.000000
vt -15.000000 10.995575 0.000000
vt -15.000000 10.495775 0.000000
vt -15.000000 9.995976 0.000000
vt -15.000000 9.496178 0.000000
vt -15.000000 8.996379 0.000000
vt -15.000000 8.496580 0.000000
vt -15.000000 7.996781 0.000000
vt -15.000000 7.496983 0.000000
vt -15.000000 6.997184 0.000000
vt -15.000000 6.497385 0.000000
vt -15.000000 5.997586 0.000000
vt -15.000000 5.497787 0.000000
vt -15.000000 4.997988 0.000000
vt -15.000000 4.498189 0.000000
vt -15.000000 3.998390 0.000000
vt -15.000000 3.498592 0.000000
vt -15.000000 2.998793 0.000000
vt -15.000000 2.498994 0.000000
vt -15.000000 1.999195 0.000000
vt -15.000000 1.499396 0.000000
vt -15.000000 0.999598 0.000000
vt -15.000000 0.499799 0.000000
vt -0.000000 11.010109 0.000000
vt -0.000000 11.010109 0.000000
vt -2.000000 -10.792748 0.000000
vt -2.000000 -10.792748 0.000000
vt -13.000000 10.792748 0.000000
vt -13.000000 10.792748 0.000000
vt -15.000000 -10.995575 0.000000
vt -15.000000 -10.995575 0.000000
vt 0.000000 -3.500000 0.000000
vt 0.498102 -3.464375 0.000000
vt 0.986064 -3.358225 0.000000
vt 1.453953 -3.183712 0.000000
vt 1.892243 -2.944387 0.000000
vt 2.292012 -2.645123 0.000000
vt 2.645123 -2.292012 0.000000
vt 2.944387 -1.892243 0.000000
vt 3.183712 -1.453953 0.000000
vt 3.358225 -0.986064 0.000000
vt 3.464375 -0.498102 0.000000
vt 3.500000 0.000000 0.000000
vt 3.464375 0.498102 0.000000
vt 3.358225 0.986064 0.000000
vt 3.183712 1.453953 0.000000
vt 2.944387 1.892243 0.000000
vt 2.645123 2.292012 0.000000
vt 2.292012 2.645123 0.000000
vt 1.892243 2.944387 0.000000
vt 1.453953 3.183712 0.000000
vt 0.986064 3.358225 0.000000
vt 0.498102 3.464375 0.000000
vt 0.000000 3.500000 0.000000
vt -0.498102 3.464375 0.000000
vt -0.986064 3.358225 0.000000
vt -1.453953 3.183712 0.000000
vt -1.892243 2.944387 0.000000
vt -2.292012 2.645123 0.000000
vt -2.645123 2.292012 0.000000
vt -2.944387 1.892243 0.000000
vt -3.183712 1.453953 0.000000
vt -3.358225 0.986064 0.000000
vt -3.464375 0.498102 0.000000
vt -3.500000 0.000000 0.000000
vt -3.464375 -0.498102 0.000000
vt -3.358225 -0.986064 0.000000
vt -3.183712 -1.453953 0.000000
vt -2.944387 -1.892243 0.000000
vt -2.645123 -2.292012 0.000000
vt -2.292012 -2.645123 0.000000
vt -1.892243 -2.944387 0.000000
vt -1.453953 -3.183712 0.000000
vt -0.986064 -3.358225 0.000000
vt -0.498102 -3.464375 0.000000
vn 0.000000 0.100000 0.000000
vn 0.000000 0.100000 0.000000
vn 0.000000 0.100000 0.000000
vn 0.000000 0.100000 0.000000
vn 0.000000 0.100000 0.000000
vn 0.000000 0.100000 0.000000
vn 0.000000 0.100000 0.000000
vn 0.000000 0.100000 0.000000
vn 0.000000 0.000000 0.100000
vn 0.000000 0.000000 0.100000
vn 0.000000 0.000000 0.100000
vn 0.000000 0.000000 0.100000
vn 0.000000 0.000000 -0.100000
vn 0.000000 0.000000 -0.100000
vn 0.000000 0.000000 -0.100000
vn 0.000000 0.000000 -0.100000
vn 0.100000 0.000000 0.000000
vn 0.100000 0.000000 0.000000
vn 0.100000 0.000000 0.000000
vn 0.100000 0.000000 0.000000
vn 0.000000 -0.100000 0.000000
vn 0.000000 -0.100000 0.000000
vn 0.000000 -0.100000 0.000000
vn 0.000000 -0.100000 0.000000
vn 0.000000 -0.100000 0.000000
vn 0.000000 -0.100000 0.000000
vn 0.000000 -0.100000 0.000000
vn 0.000000 -0.100000 0.000000
vn 0.000000 -0.100000 0.000000
vn 0.000000 -0.100000 0.000000
vn 0.000000 -0.100000 0.000000
vn 0.000000 -0.100000 0.000000
vn 0.000000 -0.100000 0.000000
vn 0.000000 -0.100000 0.000000
vn 0.000000 -0.100000 0.000000
vn 0.000000 -0.100000 0.000000
vn 0.000000 -0.100000 0.000000
vn 0.000000 -0.100000 0.000000
vn 0.000000 -0.100000 0.000000
vn 0.000000 -0.100000 0.000000
vn 0.000000 -0.100000 0.000000
vn 0.000000 -0.100000 0.000000
vn 0.000000 -0.100000 0.000000
vn 0.000000 -0.100000 0.000000
vn 0.000000 -0.100000 0.000000
vn 0.000000 -0.100000 0.000000
vn 0.000000 -0.100000 0.000000
vn 0.000000 -0.100000 0.000000
vn 0.000000 -0.100000 0.000000
vn 0.000000 -0.100000 0.000000
vn 0.000000 -0.100000 0.000000
vn 0.000000 -0.100000 0.000000
vn 0.000000 -0.100000 0.000000
vn 0.000000 -0.100000 0.000000
vn 0.000000 -0.100000 0.000000
vn 0.000000 -0.100000 0.000000
vn 0.000000 -0.100000 0.000000
vn 0.000000 -0.100000 0.000000
vn 0.000000 -0.100000 0.000000
vn 0.000000 -0.100000 0.000000
vn 0.000000 -0.100000 0.000000
vn 0.000000 -0.100000 0.000000
vn 0.000000 -0.100000 0.000000
vn 0.000000 -0.100000 0.000000
vn 0.000000 -0.100000 0.000000
vn 0.000000 -0.100000 0.000000
vn 0.000000 -0.100000 0.000000
vn 0.000000 -0.100000 0.000000
vn 0.000000 -0.100000 0.000000
vn 0.000000 -0.100000 0.000000
vn 0.000000 -0.100000 0.000000
vn 0.000000 -0.100000 0.000000
vn 0.095831 0.000000 -0.028571
vn 0.090790 0.000000 -0.041919
vn 0.083900 0.000000 -0.054413
vn 0.075302 0.000000 -0.065799
vn 0.065172 0.000000 -0.075846
vn 0.053714 0.000000 -0.084349
vn 0.041163 0.000000 -0.091135
vn 0.027775 0.000000 -0.096065
vn 0.013820 0.000000 -0.099040
vn -0.000415 0.000000 -0.099999
vn -0.014642 0.000000 -0.098922
vn -0.028571 0.000000 -0.095831
vn -0.041919 0.000000 -0.090790
vn -0.054413 0.000000 -0.083900
vn -0.065799 0.000000 -0.075302
vn -0.075846 0.000000 -0.065172
vn -0.084349 0.000000 -0.053714
vn -0.091135 0.000000 -0.041163
vn -0.096065 0.000000 -0.027775
vn -0.099040 0.000000 -0.013820
vn -0.099999 0.000000 0.000415
vn -0.098922 0.000000 0.014642
vn -0.095831 0.000000 0.028571
vn -0.090790 0.000000 0.041919
vn -0.083900 0.000000 0.054413
vn -0.075302 0.000000 0.065799
vn -0.065172 0.000000 0.075846
vn -0.053714 0.000000 0.084349
vn -0.041163 0.000000 0.091135
vn -0.027775 0.000000 0.096065
vn -0.013820 0.000000 0.099040
vn 0.000415 0.000000 0.099999
vn 0.014642 0.000000 0.098922
vn 0.028571 0.000000 0.095831
vn 0.041919 0.000000 0.090790
vn 0.054413 0.000000 0.083900
vn 0.065799 0.000000 0.075302
vn 0.075846 0.000000 0.065172
vn 0.084349 0.000000 0.053714
vn 0.091135 0.000000 0.041163
vn 0.096065 0.000000 0.027775
vn 0.099040 0.000000 0.013820
vn 0.099999 0.000000 -0.000415
vn 0.098922 0.000000 -0.014642
vn 0.095831 0.000000 -0.028571
vn 0.098493 0.000000 -0.017298
vn 0.099832 0.000000 -0.005792
vn 0.099832 0.000000 0.005792
vn 0.098493 0.000000 0.017298
vn 0.095831 0.000000 0.028571
vn 0.095831 0.000000 0.028571
vn 0.098493 0.000000 0.017298
vn 0.099832 0.000000 0.005792
vn 0.099832 0.000000 -0.005792
vn 0.098493 0.000000 -0.017298
vn 0.095831 0.000000 -0.028571
vn -0.100000 0.000000 0.000000
vn -0.098982 0.000000 -0.014231
vn -0.095949 0.000000 -0.028173
vn -0.090963 0.000000 -0.041542
vn -0.084125 0.000000 -0.054064
vn -0.075575 0.000000 -0.065486
vn -0.065486 0.000000 -0.075575
vn -0.054064 0.000000 -0.084125
vn -0.041542 0.000000 -0.090963
vn -0.028173 0.000000 -0.095949
vn -0.014231 0.000000 -0.098982
vn 0.000000 0.000000 -0.100000
vn 0.014231 0.000000 -0.098982
vn 0.028173 0.000000 -0.095949
vn 0.041542 0.000000 -0.090963
vn 0.054064 0.000000 -0.084125
vn 0.065486 0.000000 -0.075575
vn 0.075575 0.000000 -0.065486
vn 0.084125 0.000000 -0.054064
vn 0.090963 0.000000 -0.041542
vn 0.095949 0.000000 -0.028173
vn 0.098982 0.000000 -0.014231
vn 0.100000 0.000000 0.000000
vn 0.098982 0.000000 0.014231
vn 0.095949 0.000000 0.028173
vn 0.090963 0.000000 0.041542
vn 0.084125 0.000000 0.054064
vn 0.075575 0.000000 0.065486
vn 0.065486 0.000000 0.075575
vn 0.054064 0.000000 0.084125
vn 0.041542 0.000000 0.090963
vn 0.028173 0.000000 0.095949
vn 0.014231 0.000000 0.098982
vn 0.000000 0.000000 0.100000
vn -0.014231 0.000000 0.098982
vn -0.028173 0.000000 0.095949
vn -0.041542 0.000000 0.090963
vn -0.054064 0.000000 0.084125
vn -0.065486 0.000000 0.075575
vn -0.075575 0.000000 0.065486
vn -0.084125 0.000000 0.054064
vn -0.090963 0.000000 0.041542
vn -0.095949 0.000000 0.028173
vn -0.098982 0.000000 0.014231
vn 0.099999 0.000000 -0.000415
vn 0.099999 0.000000 -0.000415
vn 0.099832 0.000000 -0.005792
vn 0.099832 0.000000 -0.005792
vn 0.099832 0.000000 0.005792
vn 0.099832 0.000000 0.005792
vn 0.100000 0.000000 0.000000
vn 0.100000 0.000000 0.000000
vn 0.000000 0.100000 0.000000
vn 0.000000 0.100000 0.000000
vn 0.000000 0.100000 0.000000
vn 0.000000 0.100000 0.000000
vn 0.000000 0.100000 0.000000
vn 0.000000 0.100000 0.000000
vn 0.000000 0.100000 0.000000
vn 0.000000 0.100000 0.000000
vn 0.000000 0.100000 0.000000
vn 0.000000 0.100000 0.000000
vn 0.000000 0.100000 0.000000
vn 0.000000 0.100000 0.000000
vn 0.000000 0.100000 0.000000
vn 0.000000 0.100000 0.000000
vn 0.000000 0.100000 0.000000
vn 0.000000 0.100000 0.000000
vn 0.000000 0.100000 0.000000
vn 0.000000 0.100000 0.000000
vn 0.000000 0.100000 0.000000
vn 0.000000 0.100000 0.000000
vn 0.000000 0.100000 0.000000
vn 0.000000 0.100000 0.000000
vn 0.000000 0.100000 0.000000
vn 0.000000 0.100000 0.000000
vn 0.000000 0.100000 0.000000
vn 0.000000 0.100000 0.000000
vn 0.000000 0.100000 0.000000
vn 0.000000 0.100000 0.000000
vn 0.000000 0.100000 0.000000
vn 0.000000 0.100000 0.000000
vn 0.000000 0.100000 0.000000
vn 0.000000 0.100000 0.000000
vn 0.000000 0.100000 0.000000
vn 0.000000 0.100000 0.000000
vn 0.000000 0.100000 0.000000
vn 0.000000 0.100000 0.000000
vn 0.000000 0.100000 0.000000
vn 0.000000 0.100000 0.000000
vn 0.000000 0.100000 0.000000
vn 0.000000 0.100000 0.000000
vn 0.000000 0.100000 0.000000
vn 0.000000 0.100000 0.000000
vn 0.000000 0.100000 0.000000
vn 0.000000 0.100000 0.000000
usemtl 207,79,0
f 85/2/2 92/3/3 68/1/1
f 68/1/1 92/3/3 100/4/4
f 68/1/1 100/4/4 99/5/5
f 68/1/1 99/5/5 67/8/8
f 67/8/8 99/5/5 91/6/6
f 67/8/8 91/6/6 84/7/7
f 67/9/9 84/10/10 69/12/12
f 69/12/12 84/10/10 86/11/11
f 85/13/13 68/14/14 87/16/16
f 87/16/16 68/14/14 70/15/15
f 68/17/17 67/18/18 70/20/20
f 70/20/20 67/18/18 69/19/19
f 86/21/21 93/22/22 69/28/28
f 69/28/28 93/22/22 101/23/23
f 69/28/28 101/23/23 102/24/24
f 69/28/28 102/24/24 70/27/27
f 70/27/27 102/24/24 94/25/25
f 70/27/27 94/25/25 87/26/26
f 95/30/30 90/33/33 83/29/29
f 83/29/29 90/33/33 82/34/34
f 83/29/29 82/34/34 79/72/72
f 79/72/72 82/34/34 78/35/35
f 79/72/72 78/35/35 75/71/71
f 75/71/71 78/35/35 74/36/36
f 75/71/71 74/36/36 71/70/70
f 71/70/70 74/36/36 66/37/37
f 71/70/70 66/37/37 63/69/69
f 63/69/69 66/37/37 62/38/38
f 63/69/69 62/38/38 59/68/68
f 59/68/68 62/38/38 58/39/39
f 59/68/68 58/39/39 55/67/67
f 55/67/67 58/39/39 54/40/40
f 55/67/67 54/40/40 51/66/66
f 51/66/66 54/40/40 50/41/41
f 51/66/66 50/41/41 47/65/65
f 47/65/65 50/41/41 46/42/42
f 47/65/65 46/42/42 43/64/64
f 43/64/64 46/42/42 42/43/43
f 43/64/64 42/43/43 39/63/63
f 39/63/63 42/43/43 38/44/44
f 39/63/63 38/44/44 35/62/62
f 35/62/62 38/44/44 34/45/45
f 35/62/62 34/45/45 31/61/61
f 31/61/61 34/45/45 30/46/46
f 31/61/61 30/46/46 27/60/60
f 27/60/60 30/46/46 26/47/47
f 27/60/60 26/47/47 23/59/59
f 23/59/59 26/47/47 22/48/48
f 23/59/59 22/48/48 19/58/58
f 19/58/58 22/48/48 18/49/49
f 19/58/58 18/49/49 15/57/57
f 15/57/57 18/49/49 14/50/50
f 15/57/57 14/50/50 11/56/56
f 11/56/56 14/50/50 10/51/51
f 11/56/56 10/51/51 7/55/55
f 7/55/55 10/51/51 6/52/52
f 7/55/55 6/52/52 3/54/54
f 3/54/54 6/52/52 1/53/53
f 103/31/31 98/32/32 95/30/30
f 95/30/30 98/32/32 90/33/33
f 79/74/74 80/148/148 83/73/73
f 83/73/73 80/148/148 84/117/117
f 83/73/73 84/117/117 91/118/118
f 80/148/148 79/74/74 76/147/147
f 76/147/147 79/74/74 75/75/75
f 76/147/147 75/75/75 72/146/146
f 72/146/146 75/75/75 71/76/76
f 72/146/146 71/76/76 64/145/145
f 64/145/145 71/76/76 63/77/77
f 64/145/145 63/77/77 60/144/144
f 60/144/144 63/77/77 59/78/78
f 60/144/144 59/78/78 56/143/143
f 56/143/143 59/78/78 55/79/79
f 56/143/143 55/79/79 52/142/142
f 52/142/142 55/79/79 51/80/80
f 52/142/142 51/80/80 48/141/141
f 48/141/141 51/80/80 47/81/81
f 48/141/141 47/81/81 44/140/140
f 44/140/140 47/81/81 43/82/82
f 44/140/140 43/82/82 40/139/139
f 40/139/139 43/82/82 39/83/83
f 40/139/139 39/83/83 36/138/138
f 36/138/138 39/83/83 35/84/84
f 36/138/138 35/84/84 32/137/137
f 32/137/137 35/84/84 31/85/85
f 32/137/137 31/85/85 28/136/136
f 28/136/136 31/85/85 27/86/86
f 28/136/136 27/86/86 24/135/135
f 24/135/135 27/86/86 23/87/87
f 24/135/135 23/87/87 20/134/134
f 20/134/134 23/87/87 19/88/88
f 20/134/134 19/88/88 16/133/133
f 16/133/133 19/88/88 15/89/89
f 16/133/133 15/89/89 12/132/132
f 12/132/132 15/89/89 11/90/90
f 12/132/132 11/90/90 8/131/131
f 8/131/131 11/90/90 7/91/91
f 8/131/131 7/91/91 4/130/130
f 4/130/130 7/91/91 3/92/92
f 4/130/130 3/92/92 2/129/129
f 2/129/129 3/92/92 1/93/93
f 2/129/129 1/93/93 5/172/172
f 5/172/172 1/93/93 6/94/94
f 5/172/172 6/94/94 9/171/171
f 9/171/171 6/94/94 10/95/95
f 9/171/171 10/95/95 13/170/170
f 13/170/170 10/95/95 14/96/96
f 13/170/170 14/96/96 17/169/169
f 17/169/169 14/96/96 18/97/97
f 17/169/169 18/97/97 21/168/168
f 21/168/168 18/97/97 22/98/98
f 21/168/168 22/98/98 25/167/167
f 25/167/167 22/98/98 26/99/99
f 25/167/167 26/99/99 29/166/166
f 29/166/166 26/99/99 30/100/100
f 29/166/166 30/100/100 33/165/165
f 33/165/165 30/100/100 34/101/101
f 33/165/165 34/101/101 37/164/164
f 37/164/164 34/101/101 38/102/102
f 37/164/164 38/102/102 41/163/163
f 41/163/163 38/102/102 42/103/103
f 41/163/163 42/103/103 45/162/162
f 45/162/162 42/103/103 46/104/104
f 45/162/162 46/104/104 49/161/161
f 49/161/161 46/104/104 50/105/105
f 49/161/161 50/105/105 53/160/160
f 53/160/160 50/105/105 54/106/106
f 53/160/160 54/106/106 57/159/159
f 57/159/159 54/106/106 58/107/107
f 57/159/159 58/107/107 61/158/158
f 61/158/158 58/107/107 62/108/108
f 61/158/158 62/108/108 65/157/157
f 65/157/157 62/108/108 66/109/109
f 65/157/157 66/109/109 73/156/156
f 73/156/156 66/109/109 74/110/110
f 73/156/156 74/110/110 77/155/155
f 77/155/155 74/110/110 78/111/111
f 77/155/155 78/111/111 81/154/154
f 81/154/154 78/111/111 82/112/112
f 81/154/154 82/112/112 87/123/123
f 87/123/123 82/112/112 85/122/122
f 85/122/122 82/112/112 90/113/113
f 85/122/122 90/113/113 92/121/121
f 92/121/121 90/113/113 98/114/114
f 92/121/121 98/114/114 100/120/120
f 100/120/120 98/114/114 103/173/173
f 100/120/120 103/174/174 99/119/119
f 99/175/175 103/115/115 95/116/116
f 99/176/176 95/116/116 91/118/118
f 91/118/118 95/116/116 83/73/73
f 81/154/154 87/123/123 89/153/153
f 89/153/153 87/123/123 94/124/124
f 89/153/153 94/124/124 97/152/152
f 97/152/152 94/124/124 102/177/177
f 97/152/152 102/178/178 104/151/151
f 104/179/179 102/125/125 101/126/126
f 104/180/180 101/126/126 96/150/150
f 96/150/150 101/126/126 93/127/127
f 96/150/150 93/127/127 88/149/149
f 88/149/149 93/127/127 86/128/128
f 88/149/149 86/128/128 80/148/148
f 80/148/148 86/128/128 84/117/117
f 2/181/181 5/182/182 4/224/224
f 4/224/224 5/182/182 8/223/223
f 8/223/223 5/182/182 9/183/183
f 8/223/223 9/183/183 12/222/222
f 12/222/222 9/183/183 13/184/184
f 12/222/222 13/184/184 16/221/221
f 16/221/221 13/184/184 17/185/185
f 16/221/221 17/185/185 20/220/220
f 20/220/220 17/185/185 21/186/186
f 20/220/220 21/186/186 24/219/219
f 24/219/219 21/186/186 25/187/187
f 24/219/219 25/187/187 28/218/218
f 28/218/218 25/187/187 29/188/188
f 28/218/218 29/188/188 32/217/217
f 32/217/217 29/188/188 33/189/189
f 32/217/217 33/189/189 36/216/216
f 36/216/216 33/189/189 37/190/190
f 36/216/216 37/190/190 40/215/215
f 40/215/215 37/190/190 41/191/191
f 40/215/215 41/191/191 44/214/214
f 44/214/214 41/191/191 45/192/192
f 44/214/214 45/192/192 48/213/213
f 48/213/213 45/192/192 49/193/193
f 48/213/213 49/193/193 52/212/212
f 52/212/212 49/193/193 53/194/194
f 52/212/212 53/194/194 56/211/211
f 56/211/211 53/194/194 57/195/195
f 56/211/211 57/195/195 60/210/210
f 60/210/210 57/195/195 61/196/196
f 60/210/210 61/196/196 64/209/209
f 64/209/209 61/196/196 65/197/197
f 64/209/209 65/197/197 72/208/208
f 72/208/208 65/197/197 73/198/198
f 72/208/208 73/198/198 76/207/207
f 76/207/207 73/198/198 77/199/199
f 76/207/207 77/199/199 80/206/206
f 80/206/206 77/199/199 81/200/200
f 80/206/206 81/200/200 88/205/205
f 88/205/205 81/200/200 89/201/201
f 88/205/205 89/201/201 96/204/204
f 96/204/204 89/201/201 97/202/202
f 96/204/204 97/202/202 104/203/203
# 104 vertices
# 224 texture params
# 224 normals
# 204 facets

# 1 groups
