# WaveFront *.obj file (generated by Autodesk ATF)

mtllib triangle.mtl

g Solid1

v -40.414519 0.000000 0.000000
v -40.414519 70.000000 0.000000
v 20.207260 0.000000 -35.000000
v 20.207260 0.000000 35.000000
v 20.207260 70.000000 -35.000000
v 20.207260 70.000000 35.000000
vt 0.000000 0.000000 0.000000
vt 7.000000 0.000000 0.000000
vt 7.000000 7.000000 0.000000
vt 0.000000 7.000000 0.000000
vt 0.000000 0.000000 0.000000
vt 7.000000 0.000000 0.000000
vt 7.000000 7.000000 0.000000
vt 0.000000 7.000000 0.000000
vt 0.000000 0.000000 0.000000
vt 7.000000 0.000000 0.000000
vt 7.000000 7.000000 0.000000
vt 0.000000 7.000000 0.000000
vt -3.500000 3.031089 0.000000
vt 0.000000 -3.031089 0.000000
vt 3.500000 3.031089 0.000000
vt -0.000000 -3.031089 0.000000
vt 3.500000 3.031089 0.000000
vt -3.500000 3.031089 0.000000
vn 0.100000 0.000000 0.000000
vn 0.100000 0.000000 0.000000
vn 0.100000 0.000000 0.000000
vn 0.100000 0.000000 0.000000
vn -0.050000 0.000000 0.086603
vn -0.050000 0.000000 0.086603
vn -0.050000 0.000000 0.086603
vn -0.050000 0.000000 0.086603
vn -0.050000 0.000000 -0.086603
vn -0.050000 0.000000 -0.086603
vn -0.050000 0.000000 -0.086603
vn -0.050000 0.000000 -0.086603
vn 0.000000 0.100000 0.000000
vn 0.000000 0.100000 0.000000
vn 0.000000 0.100000 0.000000
vn 0.000000 -0.100000 0.000000
vn 0.000000 -0.100000 0.000000
vn 0.000000 -0.100000 0.000000
usemtl 229,31,31
f 4/1/1 3/2/2 6/4/4
f 6/4/4 3/2/2 5/3/3
f 1/5/5 4/6/6 2/8/8
f 2/8/8 4/6/6 6/7/7
f 3/9/9 1/10/10 5/12/12
f 5/12/12 1/10/10 2/11/11
f 5/13/13 2/14/14 6/15/15
f 1/16/16 3/17/17 4/18/18
# 6 vertices
# 18 texture params
# 18 normals
# 8 facets

# 1 groups
